<svg width="32" height="32" viewBox="0 0 32 32" fill="none" xmlns="http://www.w3.org/2000/svg">
<path d="M5.33334 9.33334C5.33334 8.62609 5.61429 7.94782 6.11439 7.44772C6.61449 6.94762 7.29277 6.66667 8.00001 6.66667H24C24.7073 6.66667 25.3855 6.94762 25.8856 7.44772C26.3857 7.94782 26.6667 8.62609 26.6667 9.33334V25.3333C26.6667 26.0406 26.3857 26.7189 25.8856 27.219C25.3855 27.7191 24.7073 28 24 28H8.00001C7.29277 28 6.61449 27.7191 6.11439 27.219C5.61429 26.7189 5.33334 26.0406 5.33334 25.3333V9.33334Z" stroke="#AE936B" stroke-width="2" stroke-linecap="round" stroke-linejoin="round"/>
<path d="M21.3333 4V9.33333" stroke="#AE936B" stroke-width="2" stroke-linecap="round" stroke-linejoin="round"/>
<path d="M10.6667 4V9.33333" stroke="#AE936B" stroke-width="2" stroke-linecap="round" stroke-linejoin="round"/>
<path d="M5.33334 14.6667H26.6667" stroke="#AE936B" stroke-width="2" stroke-linecap="round" stroke-linejoin="round"/>
<path d="M10.6667 18.6667V24" stroke="#AE936B" stroke-width="2" stroke-linecap="round" stroke-linejoin="round"/>
<path d="M16 18.6667V24" stroke="#AE936B" stroke-width="2" stroke-linecap="round" stroke-linejoin="round"/>
<path d="M21.3333 18.6667V24" stroke="#AE936B" stroke-width="2" stroke-linecap="round" stroke-linejoin="round"/>
</svg>
