<svg width="32" height="32" viewBox="0 0 32 32" fill="none" xmlns="http://www.w3.org/2000/svg">
<path d="M12 14.6667C12 15.7275 12.4214 16.745 13.1716 17.4951C13.9217 18.2452 14.9391 18.6667 16 18.6667C17.0609 18.6667 18.0783 18.2452 18.8284 17.4951C19.5786 16.745 20 15.7275 20 14.6667C20 13.6058 19.5786 12.5884 18.8284 11.8382C18.0783 11.0881 17.0609 10.6667 16 10.6667C14.9391 10.6667 13.9217 11.0881 13.1716 11.8382C12.4214 12.5884 12 13.6058 12 14.6667Z" stroke="#AE936B" stroke-width="2" stroke-linecap="round" stroke-linejoin="round"/>
<path d="M23.5427 22.2093L17.8853 27.8667C17.3853 28.3662 16.7074 28.6468 16.0007 28.6468C15.2939 28.6468 14.616 28.3662 14.116 27.8667L8.45732 22.2093C6.96561 20.7175 5.94977 18.8169 5.53823 16.7478C5.1267 14.6787 5.33797 12.534 6.14532 10.585C6.95267 8.63592 8.31985 6.97004 10.074 5.798C11.8281 4.62596 13.8903 4.00038 16 4.00038C18.1096 4.00038 20.1719 4.62596 21.926 5.798C23.6801 6.97004 25.0473 8.63592 25.8546 10.585C26.662 12.534 26.8733 14.6787 26.4617 16.7478C26.0502 18.8169 25.0344 20.7175 23.5427 22.2093Z" stroke="#AE936B" stroke-width="2" stroke-linecap="round" stroke-linejoin="round"/>
</svg>
